<svg viewBox="0 0 64 64" xmlns="http://www.w3.org/2000/svg" id="Rocket--Streamline-Emoji" height="64" width="64">
  <desc>
    Rocket Streamline Emoji: https://streamlinehq.com
  </desc>
  <path d="m18.733333333333334 35.44 7.56 -9.333333333333332a26.066666666666666 26.066666666666666 0 0 0 -11.333333333333332 -0.31999999999999995c-4.16 1.0266666666666666 -4.813333333333333 8.879999999999999 -4.88 12.599999999999998a1.16 1.16 0 0 0 1.7466666666666666 1.0266666666666666Z" fill="#ff6242" stroke-width="1"></path>
  <path d="M14.986666666666666 29.333333333333332a24.226666666666667 24.226666666666667 0 0 1 8.826666666666666 -0.17333333333333334l2.48 -3.0399999999999996a26.066666666666666 26.066666666666666 0 0 0 -11.333333333333332 -0.31999999999999995c-4.16 1.0133333333333332 -4.813333333333333 8.866666666666667 -4.88 12.586666666666666a1.1333333333333333 1.1333333333333333 0 0 0 0.18666666666666668 0.6399999999999999c0.39999999999999997 -3.92 1.4533333333333334 -8.879999999999999 4.72 -9.693333333333332Z" fill="#ff866e" stroke-width="1"></path>
  <path d="m18.733333333333334 35.44 7.56 -9.333333333333332a26.066666666666666 26.066666666666666 0 0 0 -11.333333333333332 -0.31999999999999995c-4.16 1.0266666666666666 -4.813333333333333 8.879999999999999 -4.88 12.599999999999998a1.16 1.16 0 0 0 1.7466666666666666 1.0266666666666666Z" fill="none" stroke="#45413c" stroke-linecap="round" stroke-linejoin="round" stroke-width="1"></path>
  <path d="m27.813333333333333 44.53333333333333 9.333333333333332 -7.56a26.026666666666664 26.026666666666664 0 0 1 0.31999999999999995 11.32c-0.9733333333333333 4.16 -8.773333333333333 4.813333333333333 -12.546666666666667 4.88a1.16 1.16 0 0 1 -1.0266666666666666 -1.7466666666666666Z" fill="#ff6242" stroke-width="1"></path>
  <path d="M33.879999999999995 48.28a24 24 0 0 0 0.17333333333333334 -8.84l3.0399999999999996 -2.466666666666667a26.026666666666664 26.026666666666664 0 0 1 0.31999999999999995 11.32c-0.9733333333333333 4.16 -8.773333333333333 4.813333333333333 -12.546666666666667 4.88a1.16 1.16 0 0 1 -0.6399999999999999 -0.18666666666666668c3.92 -0.3466666666666667 8.879999999999999 -1.4533333333333334 9.653333333333332 -4.706666666666666Z" fill="#ff866e" stroke-width="1"></path>
  <path d="m27.813333333333333 44.53333333333333 9.333333333333332 -7.56a26.026666666666664 26.026666666666664 0 0 1 0.31999999999999995 11.32c-0.9733333333333333 4.16 -8.773333333333333 4.813333333333333 -12.546666666666667 4.88a1.16 1.16 0 0 1 -1.0266666666666666 -1.7466666666666666Z" fill="none" stroke="#45413c" stroke-linecap="round" stroke-linejoin="round" stroke-width="1"></path>
  <path d="M52.63999999999999 28.746666666666663c7.226666666666667 -7.6 4.946666666666666 -16.973333333333333 3.813333333333333 -20.266666666666666a2.6666666666666665 2.6666666666666665 0 0 0 -0.6399999999999999 -1.04 2.84 2.84 0 0 0 -1.0266666666666666 -0.6399999999999999c-3.2933333333333334 -1.1333333333333333 -12.68 -3.413333333333333 -20.28 3.8666666666666663C25.119999999999997 19.546666666666667 18.666666666666664 35.33333333333333 18.666666666666664 35.33333333333333l9.333333333333332 9.333333333333332s15.706666666666665 -6.533333333333333 24.64 -15.919999999999998Z" fill="#e8f4fa" stroke-width="1"></path>
  <path d="M37.4 15.826666666666664c7.373333333333333 -7.0266666666666655 16.413333333333334 -5.066666666666666 20 -3.92a23.05333333333333 23.05333333333333 0 0 0 -0.88 -3.4266666666666663 2.6666666666666665 2.6666666666666665 0 0 0 -1.7333333333333334 -1.68c-3.2933333333333334 -1.1333333333333333 -12.68 -3.413333333333333 -20.28 3.8666666666666663C25.119999999999997 19.546666666666667 18.666666666666664 35.33333333333333 18.666666666666664 35.33333333333333l3.5866666666666664 3.5866666666666664c1.9066666666666665 -4.253333333333333 7.573333333333332 -15.893333333333333 15.146666666666665 -23.093333333333334Z" fill="#ffffff" stroke-width="1"></path>
  <path d="M52.63999999999999 28.746666666666663c7.226666666666667 -7.6 4.946666666666666 -16.973333333333333 3.813333333333333 -20.266666666666666a2.6666666666666665 2.6666666666666665 0 0 0 -0.6399999999999999 -1.04 2.84 2.84 0 0 0 -1.0266666666666666 -0.6399999999999999c-3.2933333333333334 -1.1333333333333333 -12.68 -3.413333333333333 -20.28 3.8666666666666663C25.119999999999997 19.546666666666667 18.666666666666664 35.33333333333333 18.666666666666664 35.33333333333333l9.333333333333332 9.333333333333332s15.706666666666665 -6.533333333333333 24.64 -15.919999999999998Z" fill="none" stroke="#45413c" stroke-linecap="round" stroke-linejoin="round" stroke-width="1"></path>
  <path d="M24.29333333333333 58.946666666666665a13.333333333333332 2 0 1 0 26.666666666666664 0 13.333333333333332 2 0 1 0 -26.666666666666664 0Z" fill="#45413c" opacity=".15" stroke-width="1"></path>
  <path d="M30.266666666666666 34.199999999999996a0.9066666666666667 0.9066666666666667 0 0 0 -1.2266666666666666 -1.24 29.506666666666664 29.506666666666664 0 0 0 -7.079999999999999 5.066666666666666 23.786666666666665 23.786666666666665 0 0 0 -5.16 7.8133333333333335 0.45333333333333337 0.45333333333333337 0 0 0 0.5866666666666667 0.6A23.786666666666665 23.786666666666665 0 0 0 25.199999999999996 41.33333333333333a29.21333333333333 29.21333333333333 0 0 0 5.066666666666666 -7.133333333333333Z" fill="#ff6242" stroke="#45413c" stroke-linecap="round" stroke-linejoin="round" stroke-width="1"></path>
  <path d="M37.65333333333333 18.293333333333333a7.32 7.32 0 1 0 14.64 0 7.32 7.32 0 1 0 -14.64 0Z" fill="#c0dceb" stroke="#45413c" stroke-linecap="round" stroke-linejoin="round" stroke-width="1"></path>
  <path d="M39.946666666666665 18.25333333333333a5.066666666666666 5.066666666666666 0 1 0 10.133333333333333 0 5.066666666666666 5.066666666666666 0 1 0 -10.133333333333333 0Z" fill="#00b8f0" stroke-width="1"></path>
  <path d="M41.42666666666666 14.666666666666666a5.066666666666666 5.066666666666666 0 0 0 0 7.173333333333333 5.253333333333333 5.253333333333333 0 0 0 1.1333333333333333 0.8266666666666667l4.7333333333333325 -8.92a5.026666666666666 5.026666666666666 0 0 0 -5.866666666666667 0.9199999999999999Z" fill="#4acfff" stroke-width="1"></path>
  <path d="M39.946666666666665 18.25333333333333a5.066666666666666 5.066666666666666 0 1 0 10.133333333333333 0 5.066666666666666 5.066666666666666 0 1 0 -10.133333333333333 0Z" fill="none" stroke="#45413c" stroke-linecap="round" stroke-linejoin="round" stroke-width="1"></path>
  <path d="M15.12 55.29333333333333c-0.9333333333333332 0.9333333333333332 -6.88 2.9466666666666663 -9.893333333333333 3.92 -0.5599999999999999 0.18666666666666668 -1.3333333333333333 -0.6266666666666666 -1.1866666666666665 -1.1866666666666665 0.9733333333333333 -3 2.986666666666667 -8.946666666666665 4 -9.893333333333333 1.2666666666666666 -1.3333333333333333 4.573333333333333 -1.3333333333333333 6.546666666666667 0.6133333333333333s1.8 5.279999999999999 0.5333333333333333 6.546666666666667Z" fill="#ff8a14" stroke="#45413c" stroke-linecap="round" stroke-linejoin="round" stroke-width="1"></path>
  <path d="M13.506666666666668 53.05333333333333c-0.6666666666666666 0.6533333333333333 -3.4266666666666663 1.3333333333333333 -4 0.7466666666666667s0.09333333333333334 -3.3866666666666667 0.7599999999999999 -4a2.0933333333333333 2.0933333333333333 0 0 1 2.84 0.45333333333333337 2.08 2.08 0 0 1 0.39999999999999997 2.8Z" fill="#ffe500" stroke="#45413c" stroke-linecap="round" stroke-linejoin="round" stroke-width="1"></path>
  <path d="m57.76 31.586666666666666 1.0666666666666667 2.013333333333333a0.5599999999999999 0.5599999999999999 0 0 0 0.42666666666666664 0.29333333333333333l2.253333333333333 0.26666666666666666a0.5599999999999999 0.5599999999999999 0 0 1 0.3333333333333333 0.9466666666666665l-1.5866666666666664 1.6266666666666665a0.52 0.52 0 0 0 -0.14666666666666667 0.4933333333333333l0.44 2.2266666666666666a0.5599999999999999 0.5599999999999999 0 0 1 -0.7866666666666666 0.6133333333333333l-2.04 -1.0133333333333332a0.5866666666666667 0.5866666666666667 0 0 0 -0.52 0l-1.9866666666666666 1.1199999999999999a0.5733333333333333 0.5733333333333333 0 0 1 -0.8266666666666667 -0.5733333333333333L54.666666666666664 37.33333333333333a0.5466666666666666 0.5466666666666666 0 0 0 -0.17333333333333334 -0.48l-1.6133333333333333 -1.5199999999999998a0.5599999999999999 0.5599999999999999 0 0 1 0.27999999999999997 -0.96l2.2399999999999998 -0.3866666666666666a0.5466666666666666 0.5466666666666666 0 0 0 0.41333333333333333 -0.30666666666666664l0.96 -2.0666666666666664a0.5466666666666666 0.5466666666666666 0 0 1 0.9866666666666666 -0.026666666666666665Z" fill="#ffe500" stroke-width="1"></path>
  <path d="m54.04 36.41333333333333 1.4133333333333333 -0.2533333333333333a0.5333333333333333 0.5333333333333333 0 0 0 0.41333333333333333 -0.30666666666666664l0.96 -2.0666666666666664a0.5599999999999999 0.5599999999999999 0 0 1 1 0l1.0533333333333332 2.013333333333333a0.5599999999999999 0.5599999999999999 0 0 0 0.42666666666666664 0.29333333333333333l1.4266666666666667 0.17333333333333334 1.1066666666666665 -1.1333333333333333a0.5599999999999999 0.5599999999999999 0 0 0 -0.3333333333333333 -0.9466666666666665l-2.253333333333333 -0.26666666666666666a0.5599999999999999 0.5599999999999999 0 0 1 -0.42666666666666664 -0.29333333333333333l-1.0666666666666667 -2.013333333333333a0.5466666666666666 0.5466666666666666 0 0 0 -0.9866666666666666 0l-0.96 2.0666666666666664a0.5466666666666666 0.5466666666666666 0 0 1 -0.41333333333333333 0.30666666666666664l-2.2399999999999998 0.3866666666666666a0.5599999999999999 0.5599999999999999 0 0 0 -0.27999999999999997 0.96Z" fill="#fff48c" stroke-width="1"></path>
  <path d="m57.76 31.586666666666666 1.0666666666666667 2.013333333333333a0.5599999999999999 0.5599999999999999 0 0 0 0.42666666666666664 0.29333333333333333l2.253333333333333 0.26666666666666666a0.5599999999999999 0.5599999999999999 0 0 1 0.3333333333333333 0.9466666666666665l-1.5866666666666664 1.6266666666666665a0.52 0.52 0 0 0 -0.14666666666666667 0.4933333333333333l0.44 2.2266666666666666a0.5599999999999999 0.5599999999999999 0 0 1 -0.7866666666666666 0.6133333333333333l-2.04 -1.0133333333333332a0.5866666666666667 0.5866666666666667 0 0 0 -0.52 0l-1.9866666666666666 1.1199999999999999a0.5733333333333333 0.5733333333333333 0 0 1 -0.8266666666666667 -0.5733333333333333L54.666666666666664 37.33333333333333a0.5466666666666666 0.5466666666666666 0 0 0 -0.17333333333333334 -0.48l-1.6133333333333333 -1.5199999999999998a0.5599999999999999 0.5599999999999999 0 0 1 0.27999999999999997 -0.96l2.2399999999999998 -0.3866666666666666a0.5466666666666666 0.5466666666666666 0 0 0 0.41333333333333333 -0.30666666666666664l0.96 -2.0666666666666664a0.5466666666666666 0.5466666666666666 0 0 1 0.9866666666666666 -0.026666666666666665Z" fill="none" stroke="#45413c" stroke-linecap="round" stroke-linejoin="round" stroke-width="1"></path>
  <path d="m42.31999999999999 54.120000000000005 0.3466666666666667 1.8a0.4666666666666666 0.4666666666666666 0 0 0 0.26666666666666666 0.31999999999999995l1.6933333333333334 0.72a0.45333333333333337 0.45333333333333337 0 0 1 0 0.7999999999999999l-1.5999999999999999 0.9066666666666667a0.42666666666666664 0.42666666666666664 0 0 0 -0.22666666666666668 0.3466666666666667l-0.13333333333333333 1.8266666666666667a0.45333333333333337 0.45333333333333337 0 0 1 -0.7599999999999999 0.29333333333333333l-1.3333333333333333 -1.24a0.39999999999999997 0.39999999999999997 0 0 0 -0.39999999999999997 -0.10666666666666666l-1.7866666666666666 0.39999999999999997a0.45333333333333337 0.45333333333333337 0 0 1 -0.5066666666666666 -0.6266666666666666l0.7866666666666666 -1.6666666666666665a0.41333333333333333 0.41333333333333333 0 0 0 0 -0.41333333333333333l-0.9333333333333332 -1.5733333333333333a0.45333333333333337 0.45333333333333337 0 0 1 0.44 -0.6799999999999999l1.8133333333333335 0.21333333333333332a0.5066666666666666 0.5066666666666666 0 0 0 0.39999999999999997 -0.14666666666666667l1.2 -1.3333333333333333a0.45333333333333337 0.45333333333333337 0 0 1 0.7333333333333334 0.15999999999999998Z" fill="#ffe500" stroke-width="1"></path>
  <path d="m38.346666666666664 57 1.1466666666666665 0.13333333333333333a0.4666666666666666 0.4666666666666666 0 0 0 0.39999999999999997 -0.14666666666666667l1.2 -1.3333333333333333a0.45333333333333337 0.45333333333333337 0 0 1 0.7866666666666666 0.19999999999999998l0.36 1.8a0.41333333333333333 0.41333333333333333 0 0 0 0.2533333333333333 0.31999999999999995l1.0666666666666667 0.45333333333333337 1.1199999999999999 -0.6266666666666666a0.45333333333333337 0.45333333333333337 0 0 0 0 -0.7999999999999999l-1.6933333333333334 -0.72a0.4666666666666666 0.4666666666666666 0 0 1 -0.26666666666666666 -0.31999999999999995l-0.36 -1.8a0.45333333333333337 0.45333333333333337 0 0 0 -0.7733333333333332 -0.21333333333333332l-1.2 1.3333333333333333a0.5066666666666666 0.5066666666666666 0 0 1 -0.39999999999999997 0.14666666666666667l-1.8133333333333335 -0.21333333333333332a0.45333333333333337 0.45333333333333337 0 0 0 -0.44 0.6799999999999999Z" fill="#fff48c" stroke-width="1"></path>
  <path d="m42.31999999999999 54.120000000000005 0.3466666666666667 1.8a0.4666666666666666 0.4666666666666666 0 0 0 0.26666666666666666 0.31999999999999995l1.6933333333333334 0.72a0.45333333333333337 0.45333333333333337 0 0 1 0 0.7999999999999999l-1.5999999999999999 0.9066666666666667a0.42666666666666664 0.42666666666666664 0 0 0 -0.22666666666666668 0.3466666666666667l-0.13333333333333333 1.8266666666666667a0.45333333333333337 0.45333333333333337 0 0 1 -0.7599999999999999 0.29333333333333333l-1.3333333333333333 -1.24a0.39999999999999997 0.39999999999999997 0 0 0 -0.39999999999999997 -0.10666666666666666l-1.7866666666666666 0.39999999999999997a0.45333333333333337 0.45333333333333337 0 0 1 -0.5066666666666666 -0.6266666666666666l0.7866666666666666 -1.6666666666666665a0.41333333333333333 0.41333333333333333 0 0 0 0 -0.41333333333333333l-0.9333333333333332 -1.5733333333333333a0.45333333333333337 0.45333333333333337 0 0 1 0.44 -0.6799999999999999l1.8133333333333335 0.21333333333333332a0.5066666666666666 0.5066666666666666 0 0 0 0.39999999999999997 -0.14666666666666667l1.2 -1.3333333333333333a0.45333333333333337 0.45333333333333337 0 0 1 0.7333333333333334 0.15999999999999998Z" fill="none" stroke="#45413c" stroke-linecap="round" stroke-linejoin="round" stroke-width="1"></path>
  <path d="M15.813333333333333 9.333333333333332a4.08 4.08 0 1 1 -3.453333333333333 -4.586666666666666A4.08 4.08 0 0 1 15.813333333333333 9.333333333333332Z" fill="#9ceb60" stroke-width="1"></path>
  <path d="M12.36 7.653333333333333a4.08 4.08 0 0 1 3.2133333333333334 2.6666666666666665 3.8266666666666667 3.8266666666666667 0 0 0 0.24 -0.9866666666666666 4.08 4.08 0 0 0 -8.079999999999998 -1.1333333333333333A4.306666666666667 4.306666666666667 0 0 0 8 10.226666666666667a4.1066666666666665 4.1066666666666665 0 0 1 4.359999999999999 -2.5733333333333333Z" fill="#c8ffa1" stroke-width="1"></path>
  <path d="M15.813333333333333 9.333333333333332a4.08 4.08 0 1 1 -3.453333333333333 -4.586666666666666A4.08 4.08 0 0 1 15.813333333333333 9.333333333333332Z" fill="none" stroke="#45413c" stroke-linecap="round" stroke-linejoin="round" stroke-width="1"></path>
  <path d="M7.8133333333333335 9.733333333333333C6.799999999999999 10.426666666666666 4.76 12 5.333333333333333 13.146666666666665s13.986666666666666 -6.866666666666667 13.52 -8 -3.333333333333333 0.15999999999999998 -4.346666666666666 0.6399999999999999" fill="none" stroke="#45413c" stroke-linecap="round" stroke-linejoin="round" stroke-width="1"></path>
</svg>