<svg viewBox="0 0 64 64" xmlns="http://www.w3.org/2000/svg" id="Direct-Hit--Streamline-Emoji" height="64" width="64">
  <desc>
    Direct Hit Streamline Emoji: https://streamlinehq.com
  </desc>
  <path d="M7.186666666666666 32a24.813333333333333 24.813333333333333 0 1 0 49.626666666666665 0 24.813333333333333 24.813333333333333 0 1 0 -49.626666666666665 0Z" fill="#ff6242" stroke-width="1"></path>
  <path d="M32 12.239999999999998A24.826666666666668 24.826666666666668 0 0 1 56.693333333333335 34.53333333333333c0.07999999999999999 -0.84 0.12 -1.68 0.12 -2.533333333333333a24.813333333333333 24.813333333333333 0 0 0 -49.626666666666665 0c0 0.8533333333333333 0 1.6933333333333334 0.12 2.533333333333333A24.826666666666668 24.826666666666668 0 0 1 32 12.239999999999998Z" fill="#ff866e" stroke-width="1"></path>
  <path d="M7.186666666666666 32a24.813333333333333 24.813333333333333 0 1 0 49.626666666666665 0 24.813333333333333 24.813333333333333 0 1 0 -49.626666666666665 0Z" fill="none" stroke="#45413c" stroke-linecap="round" stroke-linejoin="round" stroke-width="1"></path>
  <path d="M13.2 32a18.799999999999997 18.799999999999997 0 1 0 37.599999999999994 0 18.799999999999997 18.799999999999997 0 1 0 -37.599999999999994 0Z" fill="#ffffff" stroke="#45413c" stroke-linecap="round" stroke-linejoin="round" stroke-width="1"></path>
  <path d="M19.21333333333333 32a12.786666666666665 12.786666666666665 0 1 0 25.57333333333333 0 12.786666666666665 12.786666666666665 0 1 0 -25.57333333333333 0Z" fill="#ff6242" stroke="#45413c" stroke-linecap="round" stroke-linejoin="round" stroke-width="1"></path>
  <path d="M25.986666666666665 32a6.013333333333333 6.013333333333333 0 1 0 12.026666666666666 0 6.013333333333333 6.013333333333333 0 1 0 -12.026666666666666 0Z" fill="#ffffff" stroke="#45413c" stroke-linecap="round" stroke-linejoin="round" stroke-width="1"></path>
  <path d="M50.986666666666665 50.666666666666664a1.4933333333333334 1.4933333333333334 0 0 1 -2.12 0L31.319999999999997 33.06666666666666a1.5066666666666664 1.5066666666666664 0 0 1 0 -2.1333333333333333 1.4933333333333334 1.4933333333333334 0 0 1 2.12 0l17.546666666666667 17.546666666666667a1.5066666666666664 1.5066666666666664 0 0 1 0 2.1866666666666665Z" fill="#00b8f0" stroke="#45413c" stroke-linecap="round" stroke-linejoin="round" stroke-width="1"></path>
  <path d="M40.36 37.839999999999996s8.866666666666667 -2.3466666666666667 13.826666666666664 1.0666666666666667c4.72 3.2666666666666666 2.293333333333333 7.68 -1.0666666666666667 8.506666666666666 -2.7733333333333334 0.6933333333333334 -5.333333333333333 -2.12 -5.333333333333333 -2.12Z" fill="#00b8f0" stroke-width="1"></path>
  <path d="M54.18666666666667 42.666666666666664a6.666666666666666 6.666666666666666 0 0 1 2.1466666666666665 2.3066666666666666c0.9199999999999999 -1.76 0.6533333333333333 -4.093333333333333 -2.1466666666666665 -6.0266666666666655 -4.96 -3.413333333333333 -13.826666666666664 -1.0666666666666667 -13.826666666666664 -1.0666666666666667l3.1466666666666665 3.1466666666666665c3.0266666666666664 -0.41333333333333333 7.613333333333333 -0.52 10.68 1.64Z" fill="#4acfff" stroke-width="1"></path>
  <path d="M40.36 37.839999999999996s8.866666666666667 -2.3466666666666667 13.826666666666664 1.0666666666666667c4.72 3.2666666666666666 2.293333333333333 7.68 -1.0666666666666667 8.506666666666666 -2.7733333333333334 0.6933333333333334 -5.333333333333333 -2.12 -5.333333333333333 -2.12Z" fill="none" stroke="#45413c" stroke-linecap="round" stroke-linejoin="round" stroke-width="1"></path>
  <path d="M38.239999999999995 40s-2.3466666666666667 8.866666666666667 1.0666666666666667 13.826666666666664c3.253333333333333 4.72 7.68 2.293333333333333 8.506666666666666 -1.0666666666666667 0.6933333333333334 -2.786666666666666 -2.12 -5.333333333333333 -2.12 -5.333333333333333Z" fill="#00b8f0" stroke-width="1"></path>
  <path d="M47.373333333333335 53.919999999999995a5.08 5.08 0 0 0 0.44 -1.16c0.6933333333333334 -2.786666666666666 -2.12 -5.333333333333333 -2.12 -5.333333333333333L38.239999999999995 40a29.226666666666667 29.226666666666667 0 0 0 -0.6799999999999999 4.119999999999999Z" fill="#009fd9" stroke-width="1"></path>
  <path d="M38.239999999999995 40s-2.3466666666666667 8.866666666666667 1.0666666666666667 13.826666666666664c3.253333333333333 4.72 7.68 2.293333333333333 8.506666666666666 -1.0666666666666667 0.6933333333333334 -2.786666666666666 -2.12 -5.333333333333333 -2.12 -5.333333333333333Z" fill="none" stroke="#45413c" stroke-linecap="round" stroke-linejoin="round" stroke-width="1"></path>
  <path d="M14.706666666666665 60.413333333333334a17.293333333333333 2.253333333333333 0 1 0 34.586666666666666 0 17.293333333333333 2.253333333333333 0 1 0 -34.586666666666666 0Z" fill="#45413c" opacity=".15" stroke-width="1"></path>
</svg>