<svg viewBox="0 0 64 64" xmlns="http://www.w3.org/2000/svg" id="Hourglass-Not-Done-1--Streamline-Emoji" height="64" width="64">
  <desc>
    Hourglass Not Done 1 Streamline Emoji: https://streamlinehq.com
  </desc>
  <path d="M11.879999999999999 60.25333333333333a20.119999999999997 2.413333333333333 0 1 0 40.239999999999995 0 20.119999999999997 2.413333333333333 0 1 0 -40.239999999999995 0Z" fill="#45413c" opacity=".15" stroke-width="1"></path>
  <path d="m15.093333333333334 3 33.8 0 0 8.053333333333333 -33.8 0Z" fill="#debb7e" stroke-width="1"></path>
  <path d="M47.29333333333333 3H16.706666666666663a1.6133333333333333 1.6133333333333333 0 0 0 -1.6133333333333333 1.5999999999999999V8a1.6133333333333333 1.6133333333333333 0 0 1 1.6133333333333333 -1.6133333333333333h30.586666666666666A1.6133333333333333 1.6133333333333333 0 0 1 48.906666666666666 8V4.6a1.6133333333333333 1.6133333333333333 0 0 0 -1.6133333333333333 -1.5999999999999999Z" fill="#f0d5a8" stroke-width="1"></path>
  <path d="m15.093333333333334 3 33.8 0 0 8.053333333333333 -33.8 0Z" fill="none" stroke="#45413c" stroke-linecap="round" stroke-linejoin="round" stroke-width="1"></path>
  <path d="m15.093333333333334 51.28 33.8 0 0 8.053333333333333 -33.8 0Z" fill="#debb7e" stroke-width="1"></path>
  <path d="M47.29333333333333 51.28H16.706666666666663a1.6133333333333333 1.6133333333333333 0 0 0 -1.6133333333333333 1.6133333333333333v3.4266666666666663A1.6133333333333333 1.6133333333333333 0 0 1 16.706666666666663 54.666666666666664h30.586666666666666a1.6133333333333333 1.6133333333333333 0 0 1 1.6133333333333333 1.6133333333333333v-3.3866666666666667a1.6133333333333333 1.6133333333333333 0 0 0 -1.6133333333333333 -1.6133333333333333Z" fill="#f0d5a8" stroke-width="1"></path>
  <path d="m15.093333333333334 51.28 33.8 0 0 8.053333333333333 -33.8 0Z" fill="none" stroke="#45413c" stroke-linecap="round" stroke-linejoin="round" stroke-width="1"></path>
  <path d="M46.48 11.04H17.52l0.4666666666666666 7.626666666666666a9.68 9.68 0 0 0 4.906666666666666 7.8133333333333335l2.453333333333333 1.3333333333333333a3.7733333333333334 3.7733333333333334 0 0 1 0 6.573333333333332l-2.453333333333333 1.3333333333333333a9.68 9.68 0 0 0 -4.906666666666666 7.8133333333333335l-0.4666666666666666 7.626666666666666h28.959999999999997l-0.4666666666666666 -7.626666666666666a9.68 9.68 0 0 0 -4.906666666666666 -7.8133333333333335l-2.453333333333333 -1.3333333333333333a3.7733333333333334 3.7733333333333334 0 0 1 0 -6.573333333333332l2.453333333333333 -1.3333333333333333A9.68 9.68 0 0 0 46.01333333333333 18.666666666666664Z" fill="#80ddff" stroke-width="1"></path>
  <path d="M38.666666666666664 34.45333333333333a3.7733333333333334 3.7733333333333334 0 0 1 0 -6.573333333333332l2.453333333333333 -1.3333333333333333a10.013333333333332 10.013333333333332 0 0 0 1.4 -0.96l3.8666666666666663 -12.76 0.10666666666666666 -1.7333333333333334h-12l-12.266666666666666 40.18666666666667H34.666666666666664l4.946666666666666 -16.266666666666666Z" fill="#b8ecff" stroke-width="1"></path>
  <path d="M46.48 11.04H17.52l0.4666666666666666 7.626666666666666a9.68 9.68 0 0 0 4.906666666666666 7.8133333333333335l2.453333333333333 1.3333333333333333a3.7733333333333334 3.7733333333333334 0 0 1 0 6.573333333333332l-2.453333333333333 1.3333333333333333a9.68 9.68 0 0 0 -4.906666666666666 7.8133333333333335l-0.4666666666666666 7.626666666666666h28.959999999999997l-0.4666666666666666 -7.626666666666666a9.68 9.68 0 0 0 -4.906666666666666 -7.8133333333333335l-2.453333333333333 -1.3333333333333333a3.7733333333333334 3.7733333333333334 0 0 1 0 -6.573333333333332l2.453333333333333 -1.3333333333333333A9.68 9.68 0 0 0 46.01333333333333 18.666666666666664Z" fill="none" stroke="#45413c" stroke-linecap="round" stroke-linejoin="round" stroke-width="1"></path>
  <path d="m32 29.759999999999998 0 21.52" fill="none" stroke="#45413c" stroke-linecap="round" stroke-linejoin="round" stroke-width="1"></path>
  <path d="M17.986666666666665 18.666666666666664a9.68 9.68 0 0 0 4.906666666666666 7.8133333333333335l2.9333333333333336 1.6533333333333333a12.613333333333333 12.613333333333333 0 0 0 12.346666666666666 0l2.9333333333333336 -1.6533333333333333A9.68 9.68 0 0 0 46.01333333333333 18.666666666666664Z" fill="#f7e5c6" stroke-width="1"></path>
  <path d="m32.10666666666666 18.666666666666664 -3.24 10.666666666666666a12.306666666666667 12.306666666666667 0 0 0 3.1333333333333333 0.39999999999999997 12.653333333333332 12.653333333333332 0 0 0 6.173333333333333 -1.6133333333333333l2.9333333333333336 -1.6533333333333333a10.013333333333332 10.013333333333332 0 0 0 1.4 -0.96L44.58666666666666 18.666666666666664Z" fill="#fff5e3" stroke-width="1"></path>
  <path d="M17.986666666666665 18.666666666666664a9.68 9.68 0 0 0 4.906666666666666 7.8133333333333335l2.9333333333333336 1.6533333333333333a12.613333333333333 12.613333333333333 0 0 0 12.346666666666666 0l2.9333333333333336 -1.6533333333333333A9.68 9.68 0 0 0 46.01333333333333 18.666666666666664Z" fill="none" stroke="#45413c" stroke-linecap="round" stroke-linejoin="round" stroke-width="1"></path>
</svg>