<svg viewBox="0 0 64 64" xmlns="http://www.w3.org/2000/svg" id="Bar-Chart--Streamline-Emoji" height="64" width="64">
  <desc>
    Bar Chart Streamline Emoji: https://streamlinehq.com
  </desc>
  <path d="m7.92 7.906666666666666 48.16 0 0 48.17333333333333 -48.16 0Z" fill="#ffffff" stroke-width="1"></path>
  <path d="M54.373333333333335 7.906666666666666H9.626666666666665a1.7066666666666666 1.7066666666666666 0 0 0 -1.7066666666666666 1.7066666666666666v4.279999999999999a1.7066666666666666 1.7066666666666666 0 0 1 1.7066666666666666 -1.7066666666666666h44.74666666666667a1.7066666666666666 1.7066666666666666 0 0 1 1.7066666666666666 1.7066666666666666V9.613333333333333a1.7066666666666666 1.7066666666666666 0 0 0 -1.7066666666666666 -1.7066666666666666Z" fill="#f0f0f0" stroke-width="1"></path>
  <path d="M14.146666666666665 60.33333333333333a17.866666666666667 2.333333333333333 0 1 0 35.733333333333334 0 17.866666666666667 2.333333333333333 0 1 0 -35.733333333333334 0Z" fill="#45413c" opacity=".15" stroke-width="1"></path>
  <path d="M7.92 17.599999999999998h48.16v28.813333333333333H7.92z" fill="none" stroke="#e0e0e0" stroke-linecap="round" stroke-linejoin="round" stroke-width="1"></path>
  <path d="M7.92 26.786666666666665h48.16v10.44H7.92z" fill="none" stroke="#e0e0e0" stroke-linecap="round" stroke-linejoin="round" stroke-width="1"></path>
  <path d="m36.97333333333333 7.906666666666666 0 48.17333333333333 -9.946666666666665 0 0 -48.17333333333333z" fill="none" stroke="#e0e0e0" stroke-linecap="round" stroke-linejoin="round" stroke-width="1"></path>
  <path d="m46.42666666666666 7.906666666666666 0 48.17333333333333 -28.866666666666664 0 0 -48.17333333333333z" fill="none" stroke="#e0e0e0" stroke-linecap="round" stroke-linejoin="round" stroke-width="1"></path>
  <path d="M29.173333333333332 35.49333333333333h5.653333333333333a1.7066666666666666 1.7066666666666666 0 0 1 1.7066666666666666 1.7066666666666666v18.89333333333333h-9.066666666666666V37.199999999999996a1.7066666666666666 1.7066666666666666 0 0 1 1.7066666666666666 -1.7066666666666666Z" fill="#ff6242" stroke-width="1"></path>
  <path d="M34.82666666666667 35.49333333333333h-5.653333333333333a1.7066666666666666 1.7066666666666666 0 0 0 -1.7066666666666666 1.7066666666666666v3.173333333333333A1.7066666666666666 1.7066666666666666 0 0 1 29.173333333333332 38.666666666666664h5.653333333333333a1.7066666666666666 1.7066666666666666 0 0 1 1.7066666666666666 1.7066666666666666V37.199999999999996a1.7066666666666666 1.7066666666666666 0 0 0 -1.7066666666666666 -1.7066666666666666Z" fill="#ff866e" stroke-width="1"></path>
  <path d="M29.173333333333332 35.49333333333333h5.653333333333333a1.7066666666666666 1.7066666666666666 0 0 1 1.7066666666666666 1.7066666666666666v18.89333333333333l0 0h-9.066666666666666l0 0V37.199999999999996a1.7066666666666666 1.7066666666666666 0 0 1 1.7066666666666666 -1.7066666666666666Z" fill="none" stroke="#45413c" stroke-linecap="round" stroke-linejoin="round" stroke-width="1"></path>
  <path d="M14.773333333333333 29.333333333333332h5.653333333333333a1.7066666666666666 1.7066666666666666 0 0 1 1.7066666666666666 1.7066666666666666v25.05333333333333H13.066666666666666V30.986666666666665A1.7066666666666666 1.7066666666666666 0 0 1 14.773333333333333 29.333333333333332Z" fill="#6dd627" stroke-width="1"></path>
  <path d="M20.426666666666666 29.333333333333332h-5.653333333333333a1.7066666666666666 1.7066666666666666 0 0 0 -1.7066666666666666 1.6533333333333333v3.173333333333333a1.7066666666666666 1.7066666666666666 0 0 1 1.7066666666666666 -1.7066666666666666h5.653333333333333a1.7066666666666666 1.7066666666666666 0 0 1 1.7066666666666666 1.7066666666666666v-3.173333333333333A1.7066666666666666 1.7066666666666666 0 0 0 20.426666666666666 29.333333333333332Z" fill="#9ceb60" stroke-width="1"></path>
  <path d="M14.773333333333333 29.333333333333332h5.653333333333333a1.7066666666666666 1.7066666666666666 0 0 1 1.7066666666666666 1.7066666666666666v25.05333333333333l0 0H13.066666666666666l0 0V30.986666666666665A1.7066666666666666 1.7066666666666666 0 0 1 14.773333333333333 29.333333333333332Z" fill="none" stroke="#45413c" stroke-linecap="round" stroke-linejoin="round" stroke-width="1"></path>
  <path d="M43.61333333333333 18.599999999999998h5.653333333333333a1.7066666666666666 1.7066666666666666 0 0 1 1.7066666666666666 1.7066666666666666v35.78666666666666h-9.066666666666666V20.306666666666665a1.7066666666666666 1.7066666666666666 0 0 1 1.7066666666666666 -1.7066666666666666Z" fill="#00b8f0" stroke-width="1"></path>
  <path d="M49.25333333333333 18.666666666666664h-5.640000000000001a1.7066666666666666 1.7066666666666666 0 0 0 -1.7066666666666666 1.7066666666666666v3.093333333333333a1.7066666666666666 1.7066666666666666 0 0 1 1.7066666666666666 -1.7066666666666666h5.640000000000001a1.7066666666666666 1.7066666666666666 0 0 1 1.7066666666666666 1.7066666666666666v-3.16A1.7066666666666666 1.7066666666666666 0 0 0 49.25333333333333 18.666666666666664Z" fill="#4acfff" stroke-width="1"></path>
  <path d="M43.61333333333333 18.599999999999998h5.653333333333333a1.7066666666666666 1.7066666666666666 0 0 1 1.7066666666666666 1.7066666666666666v35.78666666666666l0 0h-9.066666666666666l0 0V20.306666666666665a1.7066666666666666 1.7066666666666666 0 0 1 1.7066666666666666 -1.7066666666666666Z" fill="none" stroke="#45413c" stroke-linecap="round" stroke-linejoin="round" stroke-width="1"></path>
  <path d="m7.92 7.906666666666666 48.16 0 0 48.17333333333333 -48.16 0Z" fill="none" stroke="#45413c" stroke-linecap="round" stroke-linejoin="round" stroke-width="1"></path>
</svg>